<svg width="30" height="30" viewBox="0 0 30 30" fill="none" xmlns="http://www.w3.org/2000/svg">
<path d="M19.5125 15C19.5125 17.4875 17.4875 19.5125 15 19.5125C12.5125 19.5125 10.4875 17.4875 10.4875 15C10.4875 12.5125 12.5125 10.4875 15 10.4875C17.4875 10.4875 19.5125 12.5125 19.5125 15ZM15 0C6.72875 0 0 6.72875 0 15C0 23.2712 6.72875 30 15 30C18.03 30 20.9513 29.0975 23.45 27.3913L23.4925 27.3612L21.4713 25.0125L21.4375 25.0338C19.5183 26.2703 17.2831 26.9269 15 26.925C8.425 26.925 3.075 21.575 3.075 15C3.075 8.425 8.425 3.075 15 3.075C21.575 3.075 26.925 8.425 26.925 15C26.9232 15.8618 26.829 16.7209 26.6438 17.5625C26.2675 19.1112 25.1825 19.585 24.3688 19.5225C23.5513 19.4562 22.5938 18.8725 22.5863 17.4462V15C22.5843 12.9885 21.7844 11.0599 20.3622 9.63746C18.9399 8.215 17.0115 7.41482 15 7.4125C12.9883 7.41449 11.0595 8.21452 9.63702 9.63702C8.21452 11.0595 7.41449 12.9883 7.4125 15C7.41449 17.0117 8.21452 18.9405 9.63702 20.363C11.0595 21.7855 12.9883 22.5855 15 22.5875C15.9998 22.5899 16.9901 22.3931 17.913 22.0085C18.8358 21.6239 19.6728 21.0592 20.375 20.3475C20.8188 21.0445 21.4325 21.6172 22.1585 22.0118C22.8844 22.4065 23.6987 22.6102 24.525 22.6038C25.6175 22.6038 26.7 22.2387 27.5712 21.5775C28.47 20.8937 29.1413 19.9075 29.5125 18.7213C29.5713 18.5287 29.6813 18.0912 29.6813 18.0875L29.6838 18.0712C29.9025 17.1213 30 16.1712 30 15C30 6.72875 23.2712 0 15 0Z" fill="black"/>
</svg>
