<svg width="92" height="13" viewBox="0 0 92 13" fill="none" xmlns="http://www.w3.org/2000/svg">
<path d="M0.494 13V0.399999H2.906L8.27 9.292H6.992L12.266 0.399999H14.66L14.696 13H11.96L11.942 4.594H12.446L8.234 11.668H6.92L2.618 4.594H3.23V13H0.494ZM21.2674 5.476H27.3334V7.744H21.2674V5.476ZM21.4834 10.66H28.3414V13H18.5854V0.399999H28.1074V2.74H21.4834V10.66ZM40.2016 0.399999H43.1176V13H40.2016V0.399999ZM34.4776 13H31.5616V0.399999H34.4776V13ZM40.4176 7.834H34.2616V5.368H40.4176V7.834ZM46.9987 13V0.399999H49.4107L54.7747 9.292H53.4967L58.7707 0.399999H61.1647L61.2007 13H58.4647L58.4467 4.594H58.9507L54.7387 11.668H53.4247L49.1227 4.594H49.7347V13H46.9987ZM63.4341 13L69.0501 0.399999H71.9301L77.5641 13H74.5041L69.8961 1.876H71.0481L66.4221 13H63.4341ZM66.2421 10.3L67.0161 8.086H73.4961L74.2881 10.3H66.2421ZM79.7713 13V0.399999H82.1833L89.6173 9.472H88.4473V0.399999H91.3273V13H88.9333L81.4813 3.928H82.6513V13H79.7713Z" fill="white"/>
</svg>
